<svg id="レイヤー_1" data-name="レイヤー 1" xmlns="http://www.w3.org/2000/svg" viewBox="0 0 515.3 512.19"><defs><style>.cls-1{fill:#9b9b9b;}.cls-1,.cls-2,.cls-3,.cls-4{stroke:#231815;stroke-miterlimit:10;}.cls-2{fill:#fff;}.cls-3{fill:#272828;}.cls-4{fill:#040000;}</style></defs><path class="cls-1" d="M457.61,488.6,422,519.69s-160.83-186-176.83-203.13c-11.82-13.34-66.32-22.11-90.71-31.64s-54.94-45-93-134.53c-27.21-64-30.49-78.13-11.82-93C64.5,50,75.92,54,79.74,57.4,85.08,61.59,457.61,488.6,457.61,488.6Z" transform="translate(-37.37 -8.26)"/><path class="cls-1" d="M125.79,519.75S348,266.14,364.17,247.7c18.36-25,72.65.53,102-30.1s76.57-85.11,82.27-91.66,5-16.63-3.37-24.32S528.76,94.45,523,99.39s-66.83,75.36-66.83,75.36-10,8.58-17.77-.48-2.17-15.63-2.17-15.63l61.87-72.91c8.29-9.76,7.76-20-3.23-28.33-9.76-9.71-20-8.77-28.5.81l-63.43,71.55s-5.71,6.45-15.78.06-3-17.52-3-17.52,61.1-70.37,65.16-76.81,3.45-14.41-5.34-21.61-18.87-6.47-24.55.1-52.95,61-79.11,94.4,6.75,83.55-15.37,105.26L89.28,488.08Z" transform="translate(-37.37 -8.26)"/><path class="cls-2" d="M74.28,220.11" transform="translate(-37.37 -8.26)"/><path class="cls-3" d="M280.63,476.41c94.63,0,171.92-72.05,171.34-169.44-.23-38.21-76.87-68.13-171.44-68.16h-.13c-94.57,0-171.21,29.95-171.44,68.16-.58,97.39,76.71,169.44,171.34,169.44" transform="translate(-37.37 -8.26)"/><path class="cls-2" d="M280.4,348.43c-70.83,0-137.76-23.73-143.3-41.46,5.54-17.73,72.47-41.45,143.3-41.45h0c70.84,0,137.76,23.72,143.31,41.45-5.55,17.73-72.47,41.46-143.31,41.46" transform="translate(-37.37 -8.26)"/><path class="cls-4" d="M280.4,505.94c61,0,68.41-25.36,68.41-25.36V463.15s-38.44,13.24-68.45,13.26-68.46-13.26-68.46-13.26v17.43s7.46,25.36,68.41,25.36" transform="translate(-37.37 -8.26)"/></svg>