<svg id="レイヤー_1" data-name="レイヤー 1" xmlns="http://www.w3.org/2000/svg" viewBox="0 0 782.31 240.71"><defs><style>.cls-1{fill:#fff;}.cls-1,.cls-2,.cls-3{stroke:#231815;stroke-miterlimit:10;}.cls-2{fill:#272828;}.cls-3{fill:#040000;}.cls-4{font-size:184px;}.cls-4,.cls-5{fill:#231815;font-family:Avocado;}.cls-5{font-size:32px;}</style></defs><path class="cls-1" d="M79.47,98.56" transform="translate(-33.32 -22.72)"/><path class="cls-2" d="M153.8,195.47c41.78,0,75.91-31.81,75.66-74.81-.1-16.87-34-30.08-75.7-30.1h-.06c-41.76,0-75.6,13.23-75.7,30.1-.25,43,33.87,74.81,75.66,74.81" transform="translate(-33.32 -22.72)"/><path class="cls-1" d="M153.7,139c-31.27,0-60.83-10.47-63.27-18.3,2.44-7.83,32-18.3,63.27-18.3h0c31.28,0,60.83,10.47,63.28,18.3-2.45,7.83-32,18.3-63.28,18.3" transform="translate(-33.32 -22.72)"/><path class="cls-3" d="M153.7,208.51c26.91,0,30.21-11.2,30.21-11.2v-7.69s-17,5.85-30.23,5.85-30.22-5.85-30.22-5.85v7.69s3.29,11.2,30.2,11.2" transform="translate(-33.32 -22.72)"/><text class="cls-4" transform="translate(267.67 193.2)">めしてく</text><text class="cls-5" transform="matrix(1, 0.09, -0.09, 1, 116.64, 27.43)">て</text><text class="cls-5" transform="matrix(0.95, 0.31, -0.31, 0.95, 139.58, 29.62)">く</text><text class="cls-5" transform="translate(157.15 34.91) rotate(30.83)">て</text><text class="cls-5" transform="matrix(0.72, 0.69, -0.69, 0.72, 176.86, 46.83)">く</text><text class="cls-5" transform="matrix(0.55, 0.83, -0.83, 0.55, 190.41, 59.18)">て</text><text class="cls-5" transform="translate(203.09 78.43) rotate(69.14)">く</text><text class="cls-5" transform="translate(209.99 95.42) rotate(82.01)">て</text><text class="cls-5" transform="translate(213.05 118.26) rotate(94.67)">く</text><text class="cls-5" transform="translate(211.96 136.57) rotate(107.51)">て</text><text class="cls-5" transform="translate(204.89 158.52) rotate(120.38)">く</text><text class="cls-5" transform="matrix(-0.68, 0.73, -0.73, -0.68, 195.96, 174.53)">て</text><text class="cls-5" transform="matrix(-0.83, 0.56, -0.56, -0.83, 180.11, 191.25)">く</text><text class="cls-5" transform="translate(165.16 201.87) rotate(158.68)">て</text><text class="cls-5" transform="translate(143.63 210.13) rotate(171.56)">く</text><text class="cls-5" transform="translate(125.57 213.2) rotate(-175.78)">て</text><text class="cls-5" transform="translate(102.58 211.37) rotate(-162.95)">く</text><text class="cls-5" transform="matrix(-0.87, -0.5, 0.5, -0.87, 84.95, 206.37)">て</text><text class="cls-5" transform="matrix(-0.74, -0.68, 0.68, -0.74, 65.03, 194.75)">く</text><text class="cls-5" transform="translate(51.29 182.62) rotate(-124.6)">て</text><text class="cls-5" transform="matrix(-0.37, -0.93, 0.93, -0.37, 38.32, 163.59)">く</text><text class="cls-5" transform="matrix(-0.15, -0.99, 0.99, -0.15, 31.15, 146.71)">て</text><text class="cls-5" transform="translate(27.72 123.91) rotate(-86.24)">く</text><text class="cls-5" transform="translate(28.52 105.59) rotate(-73.41)">て</text><text class="cls-5" transform="translate(35.23 83.56) rotate(-60.56)">く</text><text class="cls-5" transform="translate(43.9 67.4) rotate(-47.8)">て</text><text class="cls-5" transform="translate(59.5 50.4) rotate(-35.05)">く</text><text class="cls-5" transform="matrix(0.93, -0.38, 0.38, 0.93, 74.27, 39.56)">て</text><text class="cls-5" transform="translate(95.65 30.96) rotate(-9.36)">く</text></svg>