<svg id="レイヤー_1" data-name="レイヤー 1" xmlns="http://www.w3.org/2000/svg" viewBox="0 0 528.76 412"><defs><style>.cls-1,.cls-4,.cls-5,.cls-6{fill:#fff;}.cls-1,.cls-2,.cls-3{stroke:#231815;stroke-miterlimit:10;}.cls-2{fill:#272828;}.cls-3{fill:#040000;}.cls-4{font-size:36.93px;}.cls-4,.cls-5,.cls-6{font-family:Avocado;}.cls-5{font-size:7.69px;}.cls-6{font-size:124.63px;}</style></defs><path class="cls-1" d="M24.7,114.28" transform="translate(-19.09 -85.92)"/><path class="cls-2" d="M283.72,452c145.59,0,264.52-110.85,263.62-260.7C547,132.5,429.07,86.46,283.56,86.42h-.19c-145.51,0-263.43,46.08-263.78,104.86-.9,149.85,118,260.7,263.62,260.7" transform="translate(-19.09 -85.92)"/><path class="cls-1" d="M283.37,255.06c-109,0-212-36.49-220.49-63.78C71.41,164,174.38,127.5,283.37,127.5h.06c109,0,212,36.5,220.49,63.78-8.53,27.29-111.51,63.78-220.49,63.78" transform="translate(-19.09 -85.92)"/><path class="cls-3" d="M283.37,497.41c93.77,0,105.25-39,105.25-39V431.58S329.47,452,283.3,452,178,431.58,178,431.58v26.81s11.47,39,105.25,39" transform="translate(-19.09 -85.92)"/><text class="cls-4" transform="translate(54.71 207.29) rotate(31.66)"> </text><text class="cls-4" transform="matrix(0.91, 0.4, -0.4, 0.91, 69.11, 216.15)"> </text><text class="cls-5" transform="matrix(0.93, 0.36, -0.36, 0.93, 89.98, 213.04)"> </text><text class="cls-5" transform="matrix(0.94, 0.35, -0.35, 0.94, 93.33, 214.33)"> </text><text class="cls-6" transform="translate(82.98 260.52) rotate(13.04)">め</text><text class="cls-6" transform="matrix(1, 0.07, -0.07, 1, 180.29, 282.07)">し</text><text class="cls-6" transform="translate(263.88 288.5) rotate(-4.55)">て</text><text class="cls-6" transform="translate(360.33 280.11) rotate(-12.98)">く</text></svg>